# AST/ASF file generated using VICON BodyLanguage
# -----------------------------------------------
:version 1.10
:name VICON
:units
  mass 1.0
  length 0.45
  angle deg
:documentation
   .ast/.asf automatically generated from VICON data using
   VICON BodyBuilder and BodyLanguage model FoxedUp or BRILLIANT.MOD
:root
   order TX TY TZ RX RY RZ
   axis XYZ
   position 0 0 0  
   orientation 0 0 0 
:bonedata
  begin
     id 1 
     name lhipjoint
     direction 0.543289 -0.788407 0.288535 
     length 2.57127 
     axis 0 0 0  XYZ
  end
  begin
     id 2 
     name lfemur
     direction 0.34202 -0.939693 0  
     length 8.47298  
     axis 0 0 20  XYZ
    dof rx ry rz
    limits (-160.0 20.0)
           (-70.0 70.0)
           (-60.0 70.0)
  end
  begin
     id 3 
     name ltibia
     direction 0.34202 -0.939693 0   
     length 8.13367   
     axis 0 0 20   XYZ
    dof rx
    limits (-10.0 170.0)
  end
  begin
     id 4 
     name lfoot
     direction 0.114037 -0.313314 0.942778   
     length 2.67113   
     axis -90 7.62852e-016 20   XYZ
    dof rx rz
    limits (-45.0 90.0)
           (-70.0 20.0)
  end
  begin
     id 5 
     name ltoes
     direction 1.536e-011 -4.21847e-011 1   
     length 1.32217   
     axis -90 7.62852e-016 20   XYZ
    dof rx
    limits (-90.0 20.0)
  end
  begin
     id 6 
     name rhipjoint
     direction -0.571293 -0.770752 0.282074   
     length 2.63017  
     axis 0 0 0  XYZ 
  end
  begin
     id 7 
     name rfemur
     direction -0.34202 -0.939693 0   
     length 8.60885   
     axis 0 0 -20   XYZ
    dof rx ry rz
    limits (-160.0 20.0)
           (-70.0 70.0)
           (-70.0 60.0)
  end
  begin
     id 8 
     name rtibia
     direction -0.34202 -0.939693 0   
     length 8.07673   
     axis 0 0 -20   XYZ
    dof rx
    limits (-10.0 170.0)
 end
 begin
     id 9 
     name rfoot
     direction -0.121336 -0.333368 0.934956   
     length 2.81602  
     axis -90 -7.62852e-016 -20   XYZ
    dof rx rz
    limits (-45.0 90.0)
           (-20.0 70.0)
  end
  begin
     id 10 
     name rtoes
     direction -1.53491e-011 -4.21808e-011 1   
     length 1.38905   
     axis -90 -7.62852e-016 -20   XYZ
    dof rx
    limits (-90.0 20.0)
  end
  begin
     id 11 
     name lowerback
     direction 0.0136776 0.999869 -0.00861835   
     length 2.14087   
     axis 0 0 0   XYZ
    dof rx ry rz
    limits (-20.0 45.0)
           (-30.0 30.0)
           (-30.0 30.0)
  end
  begin
     id 12 
     name upperback
     direction -0.00789158 0.999804 0.0181308   
     length 2.14151   
     axis 0 0 0   XYZ
    dof rx ry rz
    limits (-20.0 45.0)
           (-30.0 30.0)
           (-30.0 30.0)
  end
  begin
     id 13 
     name thorax
     direction -0.0135231 0.999666 0.0220247   
     length 2.13644   
     axis 0 0 0   XYZ
    dof rx ry rz
    limits (-20.0 45.0)
           (-30.0 30.0)
           (-30.0 30.0)
  end
  begin
     id 14 
     name lowerneck
     direction -0.0392259 0.997317 0.0618018   
     length 1.65045   
     axis 0 0 0   XYZ
    dof rx ry rz
    limits (-20.0 45.0)
           (-30.0 30.0)
           (-30.0 30.0)
  end
  begin
     id 15 
     name upperneck
     direction 0.0765547 0.994276 -0.0745319   
     length 1.66045   
     axis 0 0 0   XYZ
    dof rx ry rz
    limits (-20.0 45.0)
           (-30.0 30.0)
           (-30.0 30.0)
  end
  begin
     id 16
     name head
     direction 0.0241564 0.999031 -0.036785  
     length 1.66594  
     axis 0 0 0   XYZ
    dof rx ry rz
    limits (-20.0 45.0)
           (-30.0 30.0)
           (-30.0 30.0)
  end
  begin
     id 17 
     name lclavicle
     direction 0.967398 0.249018 0.0461573  
     length 3.75176  
     axis 0 0 0   XYZ
    dof ry rz
    limits (-20.0 10.0)
           (0.0 20.0)
  end
  begin
     id 18 
     name lhumerus
     direction 1 -4.48963e-011 -3.05005e-027   
     length 5.93342   
     axis 180 -30 -90   XYZ
    dof rx ry rz
    limits (-60.0 90.0)
           (-90.0 90.0)
           (-90.0 90.0)
  end
  begin
     id 19
     name lradius
     direction 1 -4.48957e-011 1.07006e-026   
     length 3.94763   
     axis 180 -30 -90   XYZ
    dof rx
    limits (-10.0 170.0)
  end
  begin
     id 20
     name lwrist
     direction 1 -4.48978e-011 1.92422e-026   
     length 1.97382   
     axis -1.18182e-014 90 90   XYZ
    dof ry
    limits (-180.0 0.0)
 end
  begin
     id 21 
     name lhand
     direction 1 -4.48931e-011 3.84844e-026   
     length 0.560187   
     axis -2.45563e-014 90 90   XYZ
    dof rx rz
    limits (-90.0 90.0)
           (-45.0 45.0)
  end
  begin
     id 22 
     name lfingers
     direction 1 -4.48952e-011 7.69687e-026   
     length 0.451637   
     axis -4.91126e-014 90 90   XYZ
    dof rx
    limits (0.0 90.0)
  end
  begin
     id 23
     name lthumb
     direction 0.707107 -6.34901e-011 0.707107   
     length 0.648463   
     axis -90 45 2.85299e-015   XYZ
    dof rx rz
    limits (-45.0 45.0)
           (-45.0 45.0)
  end
  begin
     id 24 
     name rclavicle
     direction -0.965946 0.258716 0.00371831   
     length 3.63667  
     axis 0 0 0   XYZ 
    dof ry rz
    limits (-10.0 20.0)
           (-20.0 0.0)
  end
  begin
     id 25 
     name rhumerus
     direction -1 -4.48966e-011 -1.78361e-028  
     length 6.28647   
     axis 180 30 90   XYZ
    dof rx ry rz
    limits (-90.0 60.0)
           (-90.0 90.0)
           (-90.0 90.0)
  end
  begin
     id 26 
     name rradius
     direction -1 -4.48961e-011 1.05248e-026   
     length 3.81645   
     axis 180 30 90   XYZ
    dof rx
    limits (-10.0 170.0)
  end
  begin
     id 27 
     name rwrist
     direction -1 -4.48979e-011 1.92422e-026   
     length 1.90822   
     axis -1.18182e-014 -90 -90   XYZ
    dof ry
    limits (-180.0 0.0)
  end
  begin
     id 28
     name rhand
     direction -1 -4.48937e-011 3.84844e-026   
     length 0.646185   
     axis -2.45563e-014 -90 -90   XYZ
    dof rx rz
    limits (-90.0 90.0)
           (-45.0 45.0)
  end
  begin
     id 29
     name rfingers
     direction -1 -4.48953e-011 7.69687e-026   
     length 0.520971   
     axis -4.91126e-014 -90 -90   XYZ
    dof rx
    limits (0.0 90.0)
  end
  begin
     id 30
     name rthumb
     direction -0.707107 -6.3494e-011 0.707107   
     length 0.748013   
     axis -90 -45 -2.85299e-015   XYZ
    dof rx rz
    limits (-45.0 45.0)
           (-45.0 45.0)
  end
:hierarchy
  begin
    root lhipjoint rhipjoint lowerback
    lhipjoint lfemur
    lfemur ltibia
    ltibia lfoot
    lfoot ltoes
    rhipjoint rfemur
    rfemur rtibia
    rtibia rfoot
    rfoot rtoes
    lowerback upperback
    upperback thorax
    thorax lowerneck lclavicle rclavicle
    lowerneck upperneck
    upperneck head
    lclavicle lhumerus
    lhumerus lradius
    lradius lwrist
    lwrist lhand lthumb
    lhand lfingers
    rclavicle rhumerus
    rhumerus rradius
    rradius rwrist
    rwrist rhand rthumb
    rhand rfingers
  end

#!OML:ASF H:\HAZMAT1\Patient Classification 1\Patient 3\Session 1\dancer.ASF
:FULLY-SPECIFIED
:DEGREES
119
upperback -1.057240 -9.931130 1.755410
rfoot -28.767099 5.501180
lradius 44.244999
lthumb 32.103401 36.911499
rradius 31.010099
lwrist 10.109300
rhand -21.834101 -18.558100
rhumerus -62.685799 -2.269490 -65.226097
lowerneck -7.536660 8.012920 9.539120
lhand 6.819050 9.726380
ltibia 41.172298
head 5.961440 5.493090 -5.046800
rwrist 16.365499
lfingers 7.125020
rtoes 4.991100
lowerback -5.058600 -7.144670 9.217540
rfingers 7.125020
lclavicle -0.000000 0.000000
upperneck 10.893200 11.897900 -14.184900
rfemur -30.491699 13.339700 25.493999
thorax 0.468006 -4.923610 -3.669880
rclavicle -0.000000 0.000000
rtibia 39.965599
lfoot -18.263201 4.736610
lhumerus -32.495201 -60.166698 109.492996
rthumb 4.568930 -48.488800
root 28.372700 18.611601 -4.929470 -341.372009 168.891006 -1079.859985
ltoes 27.458000
lfemur -39.416500 -9.721400 -27.054399
120
upperback 1.146010 -10.384000 1.236580
rfoot -20.965099 5.426890
lradius 47.138500
lthumb 33.833599 36.303299
rradius 33.103600
lwrist 10.022800
rhand -19.210300 -18.625500
rhumerus -62.999001 5.173550 -60.997398
lowerneck -4.618050 6.369770 6.971100
lhand 8.638230 9.482800
ltibia 56.183601
head 7.673380 5.525910 -4.359040
rwrist 14.013900
lfingers 7.125020
rtoes 9.289170
lowerback -4.173570 -7.529700 6.520710
rfingers 7.125020
lclavicle 0.000000 -0.000000
upperneck 18.763500 11.690200 -12.956400
rfemur -19.846600 9.201610 27.551399
thorax 2.590550 -5.048440 -2.874320
rclavicle 0.000000 -0.000000
rtibia 48.477798
lfoot -3.643010 -6.190770
lhumerus -13.047000 -63.670898 83.363800
rthumb 7.102180 -48.486301
root 28.606899 18.558500 -5.367030 -354.463013 169.287003 -1081.790039
ltoes 3.583230
lfemur -33.924198 2.797160 -30.881300
121
upperback 1.575780 -10.944300 1.153090
rfoot -29.244499 -0.526419
lradius 50.527901
lthumb 33.548100 35.637798
rradius 31.272600
lwrist 9.418630
rhand -22.745100 -21.469999
rhumerus -66.889198 2.746860 -56.387402
lowerneck -5.439880 5.163170 6.653340
lhand 8.337720 8.754860
ltibia 64.580299
head 9.522790 5.406350 -4.327560
rwrist 14.726000
lfingers 7.125020
rtoes 17.861401
lowerback -6.015060 -7.759210 7.891100
rfingers 7.125020
lclavicle -0.000000 0.000000
upperneck 23.936100 11.358300 -12.904300
rfemur -10.663800 9.853240 29.476000
thorax 3.753890 -5.219520 -4.006210
rclavicle -0.000000 0.000000
rtibia 44.704899
lfoot 0.995159 -4.210470
lhumerus 1.061590 -57.070900 63.252201
rthumb 3.689220 -51.417801
root 28.637800 18.167500 -5.514250 -359.778015 172.440002 -1082.410034
ltoes 4.309690
lfemur -33.373901 4.296340 -32.089699
122
upperback -0.213796 -7.861990 1.840530
rfoot -35.727501 -22.525999
lradius 50.935902
lthumb 28.483200 37.632198
rradius 31.333000
lwrist 4.679180
rhand -22.580700 -19.995001
rhumerus -63.425900 -1.902480 -66.083099
lowerneck -8.493850 7.412060 8.441660
lhand 3.023750 9.780750
ltibia 55.521198
head 5.625200 4.986860 -5.078680
rwrist 16.871500
lfingers 7.125020
rtoes 7.382620
lowerback -0.669888 -5.912850 8.483930
rfingers 7.125020
lclavicle 0.000000 -0.000000
upperneck 9.717050 11.016600 -14.643500
rfemur -30.039200 18.509701 18.836000
thorax -0.724812 -3.924410 -2.732810
rclavicle 0.000000 -0.000000
rtibia 38.222000
lfoot 8.603610 4.467340
lhumerus 10.417100 -42.951302 49.863899
rthumb 3.847970 -49.939999
root 28.395100 18.894600 -4.769500 -342.148987 166.238998 -1086.189941
ltoes 10.661200
lfemur -52.759102 -1.129430 -36.870399
